<svg viewBox="0 0 266 55" fill="none" xmlns="http://www.w3.org/2000/svg">
<path d="M27.5061 0C42.6895 0 55.0123 12.32 55.0123 27.5C55.0123 42.68 42.6895 55 27.5061 55C12.3227 55 0 42.68 0 27.5C0 12.32 12.3227 0 27.5061 0ZM38.5872 24.0979H16.3151C16.1187 24.095 15.9274 24.1603 15.7737 24.2826C15.6201 24.405 15.5137 24.5768 15.4726 24.7689L15.4474 24.9229V37.0826C15.0528 37.5246 14.8365 38.0976 14.8407 38.6901C14.8407 39.3847 15.0812 39.9771 15.5292 40.4344L15.7084 40.601L16.3999 39.9064C16.2117 39.7644 16.059 39.5807 15.954 39.3696C15.849 39.1585 15.7945 38.9259 15.7948 38.6901C15.7938 38.4849 15.8334 38.2815 15.9113 38.0917C15.9892 37.9018 16.104 37.7292 16.2489 37.5839C16.3938 37.4386 16.5661 37.3233 16.7557 37.2448C16.9454 37.1663 17.1487 37.1262 17.354 37.1266C17.5594 37.1259 17.7629 37.166 17.9528 37.2444C18.1426 37.3228 18.3151 37.438 18.4602 37.5833C18.6053 37.7287 18.7201 37.9013 18.7982 38.0913C18.8762 38.2813 18.9158 38.4848 18.9148 38.6901C18.9188 38.8979 18.881 39.1043 18.8035 39.2971C18.726 39.4898 18.6104 39.665 18.4637 39.8121L18.3065 39.9504L19.0012 40.645C19.5639 40.2097 19.9113 39.5151 19.9113 38.7341C19.9113 38.2124 19.751 37.7237 19.4602 37.3199L19.303 37.1266V29.3087H20.3875V45.8559L19.6504 46.2911V47.6363H27.1038V46.2911L26.3666 45.8559V40.8619H28.5765V45.8559L27.8409 46.2911V47.6363H35.1638V46.2911L34.4267 45.8559V29.3543H35.5536V37.1721C35.1593 37.6138 34.9431 38.1861 34.9469 38.7781C34.9469 39.435 35.2204 40.0573 35.6762 40.5224L35.857 40.689L36.5486 39.9944C36.3632 39.8404 36.2133 39.6482 36.1088 39.431C36.0044 39.2138 35.948 38.9767 35.9434 38.7357C35.9424 38.5305 35.982 38.3271 36.0599 38.1372C36.1379 37.9474 36.2526 37.7748 36.3975 37.6295C36.5424 37.4841 36.7147 37.3689 36.9044 37.2904C37.094 37.2119 37.2974 37.1717 37.5026 37.1721C37.7081 37.1715 37.9115 37.2116 38.1014 37.29C38.2912 37.3683 38.4637 37.4835 38.6088 37.6289C38.7539 37.7743 38.8688 37.9469 38.9468 38.1369C39.0248 38.3268 39.0645 38.5304 39.0634 38.7357C39.0634 39.1443 38.9031 39.5214 38.6123 39.8137L38.4551 39.952L39.1499 40.6466C39.7126 40.2113 40.0599 39.5167 40.0599 38.7357C40.0599 38.214 39.9012 37.7253 39.6088 37.3214L39.4517 37.1281V24.9229C39.4092 24.4876 39.0634 24.0979 38.5872 24.0979ZM143.051 18.8461C144.533 18.8461 145.841 19.195 146.974 19.9383C148.063 19.4134 149.284 19.1526 150.723 19.1526H151.551L151.246 21.5993H149.981C149.588 21.5993 149.154 21.6433 148.717 21.6873C149.503 22.7794 149.894 24.0476 149.894 25.4461C149.894 26.3639 149.764 27.1936 149.459 27.9809C149.16 28.7569 148.717 29.4689 148.151 30.0787C147.585 30.6916 146.843 31.1709 146.014 31.5213C145.187 31.8717 144.228 32.0461 143.181 32.0461C142.483 32.0461 141.829 31.9581 141.22 31.8261C140.871 32.0021 140.696 32.2206 140.696 32.483C140.696 32.7014 140.783 32.8319 140.915 33.0079C141.045 33.1383 141.308 33.2703 141.655 33.3567C142.004 33.4887 142.441 33.5767 143.007 33.6631C143.573 33.7511 144.314 33.8831 145.187 33.9696C145.927 34.1 146.669 34.232 147.453 34.4064C148.239 34.5809 148.935 34.8433 149.589 35.2361C150.243 35.629 150.767 36.0674 151.202 36.6347C151.637 37.2036 151.856 37.9909 151.9 38.9086C151.9 40.5256 151.202 41.8361 149.762 42.7979C148.368 43.8476 146.364 44.3284 143.791 44.3284C142.483 44.3284 141.35 44.198 140.349 43.9356C139.344 43.6731 138.56 43.3227 137.906 42.8419C137.314 42.4195 136.811 41.885 136.424 41.2689C136.079 40.6866 135.899 40.022 135.901 39.3454C135.901 37.6844 136.86 36.4603 138.735 35.5866C137.688 35.0177 137.166 34.232 137.166 33.2703C137.166 32.2646 137.732 31.4789 138.909 30.91C137.122 29.6843 136.25 27.8504 136.25 25.4886C136.25 24.5284 136.424 23.6531 136.729 22.8674C137.034 22.0361 137.471 21.3369 138.081 20.768C138.647 20.2007 139.389 19.7199 140.217 19.3694C141.045 19.0206 142.004 18.8461 143.051 18.8461ZM141.655 36.5483C140.957 36.7667 140.347 37.1156 139.91 37.51C139.475 37.9469 139.258 38.4277 139.258 39.039C139.258 39.7823 139.651 40.3951 140.435 40.876C141.22 41.3569 142.309 41.5753 143.747 41.5753C145.143 41.5753 146.276 41.3553 147.148 40.9184C148.019 40.4816 148.456 39.8703 148.456 39.171C148.456 38.5141 148.063 38.0349 147.323 37.6844C146.495 37.378 145.405 37.1156 143.966 36.8987L141.655 36.5483ZM122.736 19.195V28.1553C122.736 29.8163 122.998 31.0844 123.564 31.8277C124.13 32.6134 125.004 33.0063 126.223 33.0063C127.705 33.0063 128.839 32.483 129.581 31.4773V19.239H133.373V35.9354H129.93L129.755 34.6689C128.622 35.717 127.314 36.2419 125.744 36.2419C121.211 36.2419 118.943 33.6191 118.943 28.4177V19.195H122.736ZM107.914 18.9326C109.179 18.9326 110.356 19.1526 111.359 19.5879C112.404 20.0263 113.277 20.6376 114.017 21.4249C114.759 22.2106 115.326 23.1283 115.718 24.178C116.11 25.2277 116.327 26.3623 116.327 27.588C116.327 28.8106 116.154 29.9483 115.762 30.998C115.385 32.0206 114.807 32.9569 114.061 33.7511C113.321 34.5369 112.448 35.1497 111.401 35.5866C110.356 36.0234 109.223 36.2419 107.915 36.2419C106.607 36.2419 105.43 36.0234 104.426 35.5866C103.426 35.1817 102.532 34.5539 101.812 33.7511C101.066 32.9564 100.487 32.0195 100.111 30.9964C99.6319 29.9483 99.4575 28.8121 99.4575 27.5864C99.4575 26.3639 99.6319 25.2277 100.067 24.178C100.46 23.1283 101.026 22.2106 101.768 21.4249C102.51 20.6376 103.381 20.0263 104.427 19.5879C105.474 19.151 106.606 18.9326 107.914 18.9326ZM75.8965 13.9559V19.2594H79.6452V22.3206H75.8965V30.1683C75.8965 30.8597 75.9389 31.3767 75.9814 31.7649C76.0238 32.153 76.1496 32.4547 76.3177 32.626C76.4859 32.7989 76.7814 32.9277 77.1193 32.9717C77.4966 33.0141 78.0027 33.0581 78.6345 33.0581L79.6389 33.0566L79.3088 36.1209H76.5284C75.8132 36.1209 75.1813 35.9904 74.6344 35.7751C74.1184 35.5858 73.6558 35.2747 73.2858 34.8684C72.917 34.4929 72.6428 34.035 72.4857 33.5327C72.3169 33.0028 72.232 32.4498 72.2343 31.8937V22.3206H69.7917L70.1281 19.2594H72.2343V14.344L75.8965 13.9559ZM175.943 13.7987V19.14H179.816V22.2231H175.945V30.1274C175.945 30.822 175.987 31.3421 176.031 31.7334C176.075 32.1247 176.204 32.428 176.38 32.6024C176.553 32.7753 176.858 32.9057 177.206 32.9481C177.598 32.9921 178.12 33.0361 178.773 33.0361L179.812 33.0346L179.469 36.1193H176.597C175.859 36.1193 175.205 35.9889 174.64 35.772C174.075 35.5551 173.595 35.2503 173.248 34.8606C172.899 34.4677 172.595 34.0356 172.421 33.5139C172.246 32.9813 172.158 32.4243 172.16 31.8639V22.2231H169.637L169.985 19.14H172.16V14.19L175.945 13.7971L175.943 13.7987ZM186.141 10.6716V20.2856C187.251 19.327 188.716 18.8493 190.534 18.8493C191.776 18.8493 192.887 19.0677 193.907 19.503C194.929 19.9367 195.771 20.5464 196.482 21.329C197.196 22.1314 197.754 23.0611 198.124 24.0696C198.524 25.1146 198.701 26.2444 198.701 27.4639C198.701 28.6801 198.524 29.8116 198.124 30.8566C197.771 31.8732 197.212 32.8061 196.482 33.5971C195.768 34.3875 194.889 35.0109 193.907 35.4231C192.933 35.9024 191.821 36.1193 190.534 36.1193C188.758 36.1193 187.295 35.5536 186.007 34.4661L185.874 35.7704H182.279V10.6731L186.141 10.6716ZM209.509 19.0001C210.755 19.0001 211.917 19.2154 212.905 19.6476C213.892 20.0466 214.775 20.6658 215.486 21.4579C216.207 22.2529 216.776 23.1739 217.163 24.1749C217.55 25.2104 217.765 26.3309 217.765 27.5377C217.765 28.7461 217.55 29.8666 217.163 30.9006C216.793 31.9102 216.222 32.8348 215.486 33.6191C214.751 34.403 213.855 35.0203 212.861 35.4294C211.83 35.86 210.713 36.0769 209.422 36.0769C208.132 36.0769 206.97 35.86 205.98 35.4294C204.987 35.0199 204.093 34.4026 203.358 33.6191C202.622 32.8349 202.051 31.9103 201.68 30.9006C201.328 29.8147 201.154 28.6791 201.164 27.5377C201.164 26.3309 201.337 25.2104 201.766 24.1749C202.137 23.1658 202.707 22.2418 203.443 21.4579C204.179 20.674 205.074 20.0567 206.068 19.6476C207.099 19.2154 208.218 19.0001 209.509 19.0001ZM85.9009 10.6716V20.3751C87.0781 19.3694 88.3843 18.8886 89.78 18.8886C94.401 18.8886 96.7556 21.5553 96.7556 26.9311V35.9354H92.9189V26.9311C92.9189 25.2277 92.6579 24.0036 92.133 23.2603C91.6111 22.517 90.6964 22.1241 89.4311 22.1241C87.9065 22.1241 86.7276 22.6914 85.9009 23.7851V35.9354H82.1082V10.6716H85.9009ZM157.326 10.6716V20.3123C158.501 19.3129 159.806 18.8351 161.199 18.8351C165.809 18.8351 168.158 21.4846 168.158 26.8259V35.772H164.374V26.8259C164.374 25.1319 164.113 23.9171 163.547 23.1786C163.025 22.44 162.112 22.0487 160.85 22.0487C159.328 22.0487 158.152 22.6144 157.326 23.6987V35.772H153.542V10.6716H157.326ZM107.827 22.1241C106.433 22.1241 105.3 22.605 104.514 23.6091C103.73 24.5709 103.338 25.883 103.338 27.588C103.338 29.249 103.731 30.6036 104.514 31.6093C105.3 32.615 106.431 33.0943 107.827 33.0943C109.223 33.0943 110.356 32.6134 111.14 31.6093C111.926 30.6036 112.318 29.2914 112.318 27.5864C112.318 25.883 111.925 24.5709 111.14 23.6107C110.355 22.6474 109.223 22.1241 107.827 22.1241ZM190.225 22.0691C188.892 22.0691 187.872 22.5469 187.117 23.5039C186.363 24.4624 186.007 25.8091 186.007 27.5063C186.007 29.2459 186.363 30.5941 187.117 31.5511C187.872 32.5097 188.893 32.9874 190.225 32.9874C191.6 32.9874 192.666 32.4657 193.51 31.4647C194.306 30.4637 194.707 29.1154 194.707 27.5063C194.707 25.8971 194.306 24.5913 193.508 23.5919C192.754 22.5469 191.644 22.0676 190.223 22.0676L190.225 22.0691ZM209.422 22.1477C208.045 22.1477 206.928 22.6223 206.153 23.6139C205.38 24.563 204.991 25.8563 204.991 27.5377C204.991 29.1767 205.38 30.514 206.155 31.5056C206.928 32.4971 208.045 32.9717 209.422 32.9717C210.798 32.9717 211.917 32.4971 212.692 31.5056C213.465 30.514 213.852 29.2207 213.852 27.5377C213.852 25.8563 213.465 24.563 212.69 23.6139C211.917 22.6663 210.799 22.1477 209.422 22.1477ZM143.051 21.7737C141.96 21.7737 141.133 22.1241 140.566 22.7794C140 23.4347 139.693 24.3524 139.693 25.4886C139.693 26.6263 139.998 27.544 140.566 28.1993C141.132 28.8546 141.96 29.205 143.049 29.205C144.14 29.205 144.968 28.8546 145.536 28.1993C146.102 27.5 146.407 26.5807 146.407 25.4461C146.407 24.3084 146.102 23.3907 145.536 22.7354C144.968 22.1226 144.14 21.7737 143.051 21.7737ZM33.2101 14.058H21.8462L21.7047 14.0674C21.5299 14.0958 21.3678 14.1766 21.24 14.2993C21.1123 14.422 21.0249 14.5806 20.9895 14.7541L20.9785 14.883V22.2687L20.9895 22.407C21.0209 22.5815 21.1075 22.7413 21.2365 22.863C21.3655 22.9846 21.5302 23.0616 21.7063 23.0827L21.8462 23.0937H33.2101L33.3642 23.078C33.5285 23.0464 33.6793 22.9656 33.7967 22.8463C33.914 22.7271 33.9923 22.5749 34.0212 22.4101L34.0337 22.2687V14.883L34.0196 14.74C33.9804 14.552 33.8794 14.3826 33.7327 14.2587C33.586 14.1348 33.402 14.0636 33.2101 14.0564V14.058ZM30.4627 16.6226C31.2548 16.6226 31.9134 17.2826 31.9134 18.073C31.9134 18.8634 31.2533 19.5234 30.4627 19.5234C30.0789 19.5201 29.7118 19.3663 29.4404 19.095C29.1691 18.8237 29.0152 18.4567 29.0119 18.073C29.0119 17.2826 29.672 16.6226 30.4627 16.6226ZM24.548 16.6226C24.9316 16.6259 25.2986 16.7798 25.5697 17.0511C25.8408 17.3225 25.9944 17.6895 25.9972 18.073C26.0412 18.8634 25.3827 19.5234 24.548 19.5234C24.1644 19.5201 23.7975 19.3662 23.5264 19.0949C23.2553 18.8235 23.1017 18.4565 23.0989 18.073C23.1017 17.6895 23.2553 17.3225 23.5264 17.0511C23.7975 16.7798 24.1644 16.6259 24.548 16.6226ZM30.4076 17.4036C30.2168 17.4091 30.0353 17.4874 29.9003 17.6223C29.7653 17.7573 29.687 17.9388 29.6815 18.1296C29.6815 18.513 30.0241 18.854 30.4076 18.854C30.5979 18.8481 30.7788 18.7699 30.9135 18.6353C31.0481 18.5007 31.1263 18.3198 31.1322 18.1296C31.1331 18.0341 31.1149 17.9395 31.0788 17.8511C31.0427 17.7628 30.9894 17.6825 30.922 17.6149C30.8545 17.5473 30.7743 17.4939 30.686 17.4576C30.5977 17.4213 30.5031 17.4029 30.4076 17.4036ZM24.6046 17.4036C24.4141 17.4095 24.233 17.4879 24.0983 17.6229C23.9636 17.7578 23.8856 17.939 23.88 18.1296C23.88 18.513 24.2211 18.854 24.6046 18.854C24.7952 18.8485 24.9765 18.7704 25.1114 18.6358C25.2464 18.5012 25.3249 18.3201 25.3308 18.1296C25.3353 18.033 25.3195 17.9366 25.2846 17.8465C25.2497 17.7564 25.1964 17.6746 25.1281 17.6063C25.0597 17.5379 24.9779 17.4846 24.8877 17.4497C24.7976 17.4148 24.7012 17.3991 24.6046 17.4036ZM27.5061 10.263C25.8118 10.263 24.3044 10.7894 23.2278 11.6647L22.9873 11.8721L23.682 12.8307L23.891 12.6437C24.7665 11.9209 26.0617 11.4384 27.5061 11.4384C28.9506 11.4384 30.2457 11.9193 31.1212 12.6437L31.3303 12.8291L32.025 11.8721L31.7845 11.6726C30.7078 10.8256 29.2005 10.263 27.5061 10.263ZM27.6052 7.81C25.3638 7.81 23.3142 8.57371 21.997 9.81357L21.7597 10.0524L22.4513 11.044L22.6823 10.7989C22.8427 10.6417 23.0156 10.4987 23.1885 10.3541C24.2714 9.49143 25.8731 9.01843 27.5611 9.01843C29.2508 9.01843 30.81 9.49143 32.0219 10.3981L32.3472 10.6779L32.671 10.9576L33.3642 9.96757L33.1048 9.72871C31.7609 8.56743 29.7978 7.81 27.6052 7.81ZM27.4511 5.35543C24.7115 5.35543 22.2422 6.29357 20.5919 7.80057L20.309 8.07243L21.0005 9.03729L21.241 8.78586C22.6525 7.39829 24.9158 6.53871 27.4496 6.53871C29.9848 6.53871 32.2482 7.43757 33.6581 8.79214L33.9001 9.03729L34.5917 8.07243L34.3088 7.80686C32.6584 6.33286 30.1892 5.35543 27.4511 5.35543Z" fill="#E03131"/>
<path d="M228.394 19.0002C229.641 19.0002 230.802 19.2155 231.791 19.6477C232.778 20.0467 233.66 20.6659 234.372 21.458C235.093 22.253 235.661 23.174 236.049 24.175C236.435 25.2105 236.651 26.331 236.651 27.5378C236.651 28.7462 236.435 29.8667 236.049 30.9007C235.678 31.9103 235.108 32.8349 234.372 33.6192C233.636 34.4031 232.741 35.0204 231.747 35.4295C230.716 35.8601 229.598 36.077 228.308 36.077C227.017 36.077 225.856 35.8601 224.865 35.4295C223.872 35.02 222.978 34.4027 222.244 33.6192C221.507 32.835 220.936 31.9104 220.565 30.9007C220.213 29.8148 220.039 28.6792 220.049 27.5378C220.049 26.331 220.222 25.2105 220.651 24.175C221.022 23.1659 221.593 22.2419 222.329 21.458C223.064 20.6741 223.959 20.0568 224.953 19.6477C225.985 19.2155 227.104 19.0002 228.394 19.0002ZM228.308 22.1478C226.931 22.1478 225.813 22.6224 225.038 23.614C224.265 24.5631 223.877 25.8564 223.877 27.5378C223.877 29.1768 224.265 30.5141 225.04 31.5057C225.813 32.4972 226.931 32.9718 228.308 32.9718C229.683 32.9718 230.802 32.4972 231.577 31.5057C232.35 30.5141 232.737 29.2208 232.737 27.5378C232.737 25.8564 232.35 24.5631 231.575 23.614C230.802 22.6664 229.684 22.1478 228.308 22.1478Z" fill="#E03131"/>
<path d="M242.139 35.3508H239.303V10.5285H242.139V25.1868L248.294 19.5862H252.201L245.251 25.5671L252.928 35.3508H249.193L243.107 27.3994L242.139 28.2291V35.3508Z" fill="#E03131"/>
<path d="M263.913 22.3519C262.737 21.8449 261.63 21.5914 260.593 21.5914C258.587 21.5914 257.585 22.2021 257.585 23.4236C257.585 24.4838 258.922 25.5094 261.596 26.5005C262.587 26.8693 263.498 27.4454 264.328 28.2291C265.181 29.0127 265.607 29.9576 265.607 31.0639C265.607 32.6542 265.088 33.8412 264.051 34.6248C263.014 35.3854 261.573 35.7656 259.729 35.7656C257.884 35.7656 256.086 35.2586 254.334 34.2445L255.199 32.1011C256.651 32.9308 258.299 33.3456 260.144 33.3456C260.927 33.3456 261.561 33.1843 262.045 32.8616C262.53 32.5159 262.772 32.055 262.772 31.4788C262.772 30.9026 262.495 30.4071 261.942 29.9922C261.388 29.5774 260.72 29.2086 259.936 28.8859C259.152 28.5633 258.368 28.2175 257.585 27.8488C256.801 27.457 256.132 26.9154 255.579 26.2239C255.026 25.5325 254.749 24.7143 254.749 23.7694C254.749 22.2943 255.245 21.165 256.236 20.3814C257.25 19.5747 258.53 19.1714 260.074 19.1714C261.619 19.1714 263.186 19.5171 264.777 20.2085L263.913 22.3519Z" fill="#E03131"/>
<path fill-rule="evenodd" clip-rule="evenodd" d="M242.532 35.7436H238.91V10.1356H242.532V24.298L248.142 19.1934H253.26L245.792 25.6199L253.735 35.7436H248.999L243.047 27.9679L242.532 28.4098V35.7436ZM242.139 28.2291V35.3508H239.303V10.5285H242.139V25.1868L248.294 19.5862H252.201L245.251 25.5671L252.928 35.3508H249.193L243.107 27.3994L242.139 28.2291ZM264.127 22.872L263.757 22.7127C262.619 22.222 261.566 21.9842 260.593 21.9842C259.617 21.9842 258.951 22.1351 258.541 22.3849C258.163 22.6156 257.978 22.9432 257.978 23.4236C257.978 23.7738 258.198 24.1937 258.827 24.6763C259.45 25.1543 260.41 25.6422 261.732 26.1321C262.776 26.5204 263.731 27.1257 264.595 27.9416C265.524 28.7954 266 29.8429 266 31.0639C266 32.7467 265.446 34.0636 264.288 34.9382L264.283 34.9416C263.155 35.7689 261.621 36.1585 259.729 36.1585C257.809 36.1585 255.943 35.6297 254.137 34.5845L253.842 34.4137L255.003 31.5366L255.394 31.76C256.781 32.5524 258.361 32.9528 260.144 32.9528C260.873 32.9528 261.422 32.8031 261.822 32.5383C262.203 32.2641 262.379 31.9213 262.379 31.4788C262.379 31.0516 262.182 30.6638 261.706 30.3065C261.184 29.9154 260.546 29.562 259.786 29.2492C258.997 28.924 258.207 28.5757 257.417 28.2042L257.409 28.2003C256.574 27.7828 255.861 27.2047 255.272 26.4693C254.659 25.7034 254.356 24.7971 254.356 23.7694C254.356 22.197 254.89 20.9446 255.992 20.0735C257.088 19.2017 258.459 18.7785 260.074 18.7785C261.679 18.7785 263.3 19.1379 264.934 19.8482L265.285 20.0007L264.127 22.872ZM256.236 20.3814C255.245 21.165 254.749 22.2943 254.749 23.7694C254.749 24.7143 255.026 25.5325 255.579 26.2239C256.132 26.9154 256.801 27.457 257.585 27.8488C258.368 28.2175 259.152 28.5633 259.936 28.8859C260.72 29.2086 261.388 29.5774 261.942 29.9922C262.495 30.4071 262.772 30.9026 262.772 31.4788C262.772 32.055 262.53 32.5159 262.045 32.8616C261.561 33.1843 260.927 33.3456 260.144 33.3456C258.445 33.3456 256.912 32.9937 255.546 32.2898C255.429 32.2295 255.313 32.1666 255.199 32.1011L254.334 34.2445C256.086 35.2586 257.884 35.7656 259.729 35.7656C261.573 35.7656 263.014 35.3854 264.051 34.6248C265.088 33.8412 265.607 32.6542 265.607 31.0639C265.607 29.9576 265.181 29.0127 264.328 28.2291C263.498 27.4454 262.587 26.8693 261.596 26.5005C258.922 25.5094 257.585 24.4838 257.585 23.4236C257.585 22.2021 258.587 21.5914 260.593 21.5914C261.523 21.5914 262.508 21.795 263.549 22.2024C263.67 22.2495 263.791 22.2994 263.913 22.3519L264.777 20.2085C263.186 19.5171 261.619 19.1714 260.074 19.1714C258.53 19.1714 257.25 19.5747 256.236 20.3814Z" fill="#E03131"/>
</svg>

